<svg height="179" viewBox="0 0 330 179" width="330" xmlns="http://www.w3.org/2000/svg"><g fill="#fff" fill-rule="evenodd"><path d="m0 54.0965969h10.4403346v-47.38795766h9.4727716v-6.70863924h-19.9131062zm25.6011-54.09541607-5.4452482 54.09659697h10.2192426l.9698421-14.3749808h4.9221488l.9698422 14.3749808h10.218103l-5.4452482-54.09659697zm6.1153625 33.77110857 1.7903903-27.06601183h.5960371l1.7892507 27.06601183zm36.6568457-33.77110857h-8.6556425c-7.309716 0-7.7575983 5.8725687-7.7575983 9.66086582v7.64980915h10.4403346v-8.82479532c0-1.38990816 1.045059-1.77724041 1.641096-1.77724041.9709821 0 1.6410963.85142211 1.6410963 1.77724041v10.75673222c0 3.3230259-1.0450592 4.0173896-4.0275234 4.0173896h-4.4001892v5.9505076h4.2508949c3.8770896 0 4.1768177 1.8539983 4.1768177 3.5544806v12.5812082c0 .9293608-.6712538 1.7784212-1.6410963 1.7784212-.596037 0-1.641096-.3873322-1.641096-1.7784212v-10.186362h-10.4403346v9.2747144c0 3.7859352.4478823 9.6608658 7.7575983 9.6608658h8.6556425c7.311995 0 7.758738-5.8749306 7.758738-9.6608658v-10.897258c0-1.9307561-.0740775-7.4962934-7.0852049-7.3404158v-.5420288c3.1317587.1546966 7.0852049-1.4690279 7.0852049-7.3415968v-8.65474696c-.0011399-3.78711605-.446743-9.65850391-7.758738-9.65850391zm14.6239902 54.09541607h10.4448932v-47.38795766h3.2844715v47.38795766h10.4403349v-54.0965969h-24.1696996zm47.4402146-54.09541607h-16.407542v54.09659697h10.443753v-18.3935514h5.963789c7.309716 0 7.757598-5.8737498 7.757598-9.659685v-16.38249475c0-3.78947796-.446742-9.66086582-7.757598-9.66086582zm-2.683876 27.04711747c0 1.7004826-.819408 2.7054204-1.937405 2.7054204h-1.342508v-23.04507946h1.342508c1.117997 0 1.937405 1.00493781 1.937405 2.70423954zm33.71541-27.04711747h-8.651084c-7.308578 0-7.757599 5.8725687-7.757599 9.66086582v34.77486535c0 3.7859352.449021 9.6608658 7.757599 9.6608658h8.651084c7.308575 0 7.755319-5.8749306 7.755319-9.6608658v-34.77486535c0-3.78947796-.446744-9.66086582-7.755319-9.66086582zm-2.683878 45.34619787c0 .9293608-.670114 1.7784212-1.639956 1.7784212-.597176 0-1.641095-.3873322-1.641095-1.7784212v-36.86149905c0-1.38990816 1.043919-1.77724041 1.641095-1.77724041.970983 0 1.639956.85142211 1.639956 1.77724041zm44.452052-45.34619787-6.785474 38.02231447-6.788896-38.02231447h-13.574373v54.09659697h10.442613v-33.9258051h.374946l5.36775 33.9258051h8.353636l5.370033-33.9258051h.372664v33.9258051h10.441474v-54.09659697z" fill-rule="nonzero" transform="translate(113.188406 54.893333)"/><g transform=""><path d="m73.6997456 94.2902201c2.8711357 6.8883299 7.1778395 14.2579589 9.9792092 17.8831129 4.1041143-5.330479 13.5439795-21.2240468 16.4835392-42.0003125 1.639499-11.5471368 1.709265-21.6584226-2.051386-38.1271356-3.7633344-16.4673725-13.1964913-29.85792171-14.497894-32.0458849-2.0513862 3.07280126-9.5780554 14.8947739-13.4031059 28.0171904-4.1738802 14.6212784-4.7883567 27.5989033-3.3487638 40.3807912 1.4342262 12.7792067 6.8384013 25.8922385 6.8384013 25.8922385z"/><path d="m83.7236048 107.4c-1.7798686-3.421263-4.5459683-9.9227158-4.8096524-19.978437-.0685064-9.7304509 3.7549153-18.0557874 4.8716957-19.7993408.9952789 1.7435534 4.2848693 8.99563 4.6765179 18.9275641.2688546 9.7199158-2.8940639 17.3604727-4.7385612 20.8502137z"/><path d="m70.2150831 53.6064385c.3244392-8.5502066 2.2842633-17.3288488 3.3617711-21.3681262 4.0976939-13.4924759 8.7400768-22.1179319 9.6118424-23.48720119.8730847 1.37061299 6.7195854 11.98614539 9.7503231 23.14992299 3.0175488 11.1584025 3.6255426 21.8438094 3.4936568 28.1459418-.1371615 6.2981013-.8770411 12.9388558-1.8187064 16.9136336.3389467-6.8463466-.4668759-16.5024495-2.0138972-24.0381339-1.5470215-7.5343405-5.9164004-20.1345742-9.4113763-25.9583359-3.2246095 5.549639-7.1943743 16.4406377-9.2742148 25.8884615-2.0903911 9.4545425-2.1510586 20.8884114-2.1510586 24.3162877-.5526017-2.8917247-1.9453165-13.1968534-1.5483401-23.5624504z"/><path d="m61.2873278 135.297931c.0240972-.026769.0455171-.053539.0709529-.080308 6.7271479-6.725814 17.637845-6.725814 24.3676702 0 6.7271478 6.727152 6.7271478 17.637025 0 24.364178-.0281135.026769-.0589043.049523-.0883565.078969 0 .001339 0 .004016-.001339.006693-.0321294.030785-.0682752.056216-.1017437.088339-6.7084056 6.662906-15.4798029 9.995697-24.2485228 9.995697-8.8075431 0-17.6164251-3.35956-24.3355404-10.076005-11.8424574-11.84011-13.2454526-30.15574-4.2183567-43.536429 1.2182497-1.806935 2.6212448-3.528208 4.2183567-5.125004 6.7204539-6.716444 15.5279973-10.067974 24.3355404-10.067974v-46.0527537c-33.8472586 0-61.2859889 27.4319522-61.2859889 61.2457317 0 33.836533 27.4387303 61.269824 61.2859889 61.269824 17.6472162 0 33.5447045-7.460634 44.7285041-19.393099v-41.876725h-44.7285041v19.158866z"/></g><path d="m0 0h216.811594v33.4133333h-216.811594zm14.4832711 10.8378906h-5.69958677v13.1717275h-3.20397419v-15.83652782h8.90356096zm7.1530514 9.9304601h-4.3700465l-.8500339 3.2412674h-3.389238l4.9585315-15.83652782h2.9315274l4.991225 15.83652782h-3.4219316zm-3.6725827-2.6648004h2.964221l-1.4821105-5.645026zm15.6206975-5.5688888c0-.5800955-.1616502-1.044165-.4849553-1.3922223s-.7610319-.5220833-1.3131935-.5220833c-.486774 0-.8845424.1685877-1.1933169.5057682-.3087746.3371805-.4631596.784935-.4631596 1.3432769h-3.2039741c0-.8773944.2125063-1.6586988.6375254-2.3439366.4250191-.68523779 1.011682-1.21637976 1.7600063-1.59344183.7483242-.37706207 1.569289-.56559028 2.4629189-.56559028 1.5765666 0 2.8061975.39337136 3.6889295 1.18012587.8827319.78675451 1.3240913 1.89435774 1.3240913 3.32284284 0 .7251194-.1834456 1.3867809-.5503425 1.9850044-.3668968.5982235-.8700102 1.0713567-1.5093552 1.419414.7265284.3045502 1.2859469.7668068 1.6782722 1.3867839.3923254.6199771.5884851 1.3904048.5884851 2.3113064 0 1.4284852-.475869 2.5596544-1.4276212 3.3935417s-2.2158926 1.2508246-3.7924592 1.2508246c-.9590175 0-1.8253896-.1849026-2.5991423-.5547135-.7737528-.3698109-1.3767623-.8991401-1.8090467-1.5880035s-.6484233-1.508236-.6484233-2.4581423h3.214872c0 .5438395.1707316 1.0079089.5122 1.3922222.3414683.3843133.784644.576467 1.3295403.576467.6102838 0 1.0970506-.1921537 1.4603148-.576467s.5448935-.8810126.5448935-1.4901129c0-.8193848-.1562012-1.4067227-.4686084-1.7620312-.3124073-.3553085-.7664807-.5329601-1.362234-.5329601h-1.6237828v-2.5777864h1.6346807c1.075262-.0072512 1.612885-.7106065 1.612885-2.1100868zm16.7431782 4.9815451c0 2.1245997-.5031134 3.7742216-1.5093552 4.9489149-1.0062418 1.1746934-2.4029717 1.7620313-4.1902315 1.7620313-1.7799946 0-3.1785408-.5818996-4.1956805-1.7457162-1.0171398-1.1638166-1.5329672-2.7934979-1.5474978-4.8890928v-2.7083073c0-2.1753581.5049297-3.8739248 1.5148042-5.09575091 1.0098744-1.22182613 2.4120532-1.83273003 4.2065783-1.83273003 1.765464 0 3.156745.60002727 4.1738847 1.80009982 1.0171398 1.20007252 1.5329672 2.88413702 1.5474978 5.05224392zm-3.2148721-2.6539236c0-1.4284852-.2034249-2.4907691-.6102808-3.1868837s-1.0389261-1.0441667-1.8962296-1.0441667c-.8500382 0-1.4784758.3353627-1.8853317 1.0060981s-.617546 1.6913256-.6320766 3.0618012v2.8170747c0 1.384978.2070575 2.4055682.6211787 3.0618012s1.0534566.9843446 1.9180254.9843446c.8355076 0 1.4566801-.3208605 1.863536-.9625911.4068559-.6417307.6139133-1.6369421.6211786-2.9856641zm8.5588768 3.5784462v5.5688889h-3.2039741v-15.83652782h5.4053442c1.5693013 0 2.8207277.48582269 3.7543166 1.45748264.933589.97165998 1.4003765 2.23334868 1.4003765 3.78510418 0 1.5517554-.4613386 2.7771888-1.3840297 3.6763368-.922691.899148-2.2013618 1.3487153-3.8360507 1.3487153zm0-2.6648004h2.2013701c.6102838 0 1.0825202-.1994048 1.4167232-.5982205.3342031-.3988156.5013021-.9789024.5013021-1.7402777 0-.7903802-.1707316-1.4194118-.5121999-1.8871138-.3414684-.467702-.7991744-.705175-1.3731318-.7124262h-2.2340637zm14.9668252 4.9924219h-4.3700464l-.850034 3.2412674h-3.389238l4.9585315-15.83652782h2.9315274l4.9912251 15.83652782h-3.4219316zm-3.6725826-2.6648004h2.964221l-1.4821105-5.645026zm19.7945822.6308507c-.0799182 1.8055473-.5884804 3.1723768-1.525702 4.1005296-.9372217.9281527-2.2594835 1.3922222-3.9668252 1.3922222-1.7945251 0-3.1694595-.5891507-4.1248443-1.7674696-.9553849-1.178319-1.4330701-2.8587579-1.4330701-5.0413672v-2.6648004c0-2.1753581.4940319-3.8521715 1.4821105-5.03049043.9880786-1.17831897 2.3611967-1.76746961 4.1193954-1.76746961 1.7291375 0 3.0423179.48219714 3.9395805 1.4466059.8972625.96440874 1.4076411 2.34936594 1.5311509 4.15491324h-3.2148721c-.0290611-1.1166839-.201609-1.8871116-.5176488-2.3113065-.3160399-.4241948-.8954376-.636289-1.7382105-.636289-.8573035 0-1.4639456.2991072-1.8199445.8973307-.355999.5982235-.5448935 1.5825582-.5666894 2.9530339v2.9911024c0 1.573509.1761805 2.6539207.5285468 3.2412673.3523663.5873467.9571921.8810157 1.8144956.8810157.8427729 0 1.4239869-.2048432 1.7436594-.6145356.3196725-.4096925.5013019-1.1511159.5448936-2.2242926zm12.9507189 5.2752171h-3.2039742v-13.1717275h-4.7078804v13.1717275h-3.2039742v-15.83652782h11.1158288zm5.6273491-5.5688889v5.5688889h-3.203974v-15.83652782h5.405344c1.569302 0 2.820728.48582269 3.754317 1.45748264.933589.97165998 1.400377 2.23334868 1.400377 3.78510418 0 1.5517554-.461339 2.7771888-1.38403 3.6763368s-2.201362 1.3487153-3.836051 1.3487153zm0-2.6648004h2.20137c.610284 0 1.082521-.1994048 1.416724-.5982205.334203-.3988156.501302-.9789024.501302-1.7402777 0-.7903802-.170732-1.4194118-.5122-1.8871138-.341469-.467702-.799175-.705175-1.373132-.7124262h-2.234064zm17.527825 1.3813455h-4.991225v4.1984201h5.906646v2.6539237h-9.11062v-15.83652782h9.088825v2.66480032h-5.884851v3.7415972h4.991225zm15.304659 10.7462153h-2.942425v-3.8938715h-7.508633v3.8829947h-3.029608l-.174366-6.5369184h1.057093c.464978-.4278204.83187-1.1166734 1.100685-2.0665798.268816-.9499064.45771-2.1934674.566689-3.7307205l.446813-7.38530382h9.121519v13.18260412h1.645578zm-9.154211-6.5477952h4.598901v-10.5178038h-2.877038l-.261549 4.3615712c-.181632 2.6176809-.668399 4.6697379-1.460314 6.1562326zm19.118914-4.1984201h-4.991225v4.1984201h5.906646v2.6539237h-9.110621v-15.83652782h9.088825v2.66480032h-5.88485v3.7415972h4.991225zm13.724468-8.98418402v15.83652782h-3.214873v-13.1717275h-2.942425l-.217957 5.6123959c-.087184 1.8490543-.296057 3.3155863-.626628 4.3996397-.33057 1.0840535-.813704 1.87986-1.449417 2.3874436-.635712.5075835-1.491186.7649971-2.566448.7722483h-.784647v-2.6539237l.370527-.0326302c.668407-.0797631 1.149724-.516641 1.443968-1.3106467s.47769-2.1989034.550343-4.2147352l.207059-7.62459202zm10.618574 8.98418402h-4.991225v4.1984201h5.906646v2.6539237h-9.11062v-15.83652782h9.088824v2.66480032h-5.88485v3.7415972h4.991225zm13.724468 6.8523438h-3.193076v-6.7762066h-4.729677v6.7762066h-3.203974v-15.83652782h3.203974v6.40639752h4.729677v-6.40639752h3.193076zm10.18266-15.83652782h3.203974v15.83652782h-3.203974v-10.4851737l-4.675187 10.4851737h-3.214872v-15.83652782h3.214872v10.49605032zm13.789855 8.98418402h-4.991225v4.1984201h5.906646v2.6539237h-9.110621v-15.83652782h9.088825v2.66480032h-5.88485v3.7415972h4.991225z" transform="translate(113.188406 115.355556)"/><path d="m15.5932971 13.7481944c0 3.0869368-.6590552 5.4642568-1.9771852 7.1320313-1.3181301 1.6677745-3.1915074 2.5016493-5.62018799 2.5016493-2.33526983 0-4.18010532-.8105677-5.53456182-2.4317274-1.3544565-1.6211598-2.05762164-3.9130205-2.10951653-6.8756511v-4.25746525c0-3.02478364.66943398-5.3943346 2.00832201-7.10872396 1.33888804-1.71438936 3.20707588-2.57157118 5.60461957-2.57157118 2.38716476 0 4.24756846.8209264 5.58126696 2.46280382 1.3336986 1.64187742 2.0161061 3.98553165 2.047243 7.03103299zm-2.8490149-3.96223954c0-2.39289391-.3918005-4.17199938-1.1754133-5.33736979s-1.98496135-1.74804688-3.60408176-1.74804688c-1.56722553 0-2.75300587.59044549-3.55737659 1.77135417s-1.21173945 2.92116906-1.22211843 5.22083333v4.05546871c0 2.3100232.40217933 4.0710009 1.20655004 5.2829862.80437072 1.2119852 2.00571929 1.8179687 3.60408175 1.8179687s2.78154809-.5593694 3.54959239-1.678125 1.1676289-2.8331192 1.1987659-5.1431424zm59.6038823 4.42838544v8.8567708h-2.8490149v-22.6236111h7.2237319c2.1069323 0 3.7623543.62929058 4.9663157 1.88789063 1.2039613 1.25860004 1.8059329 2.93411858 1.8059329 5.0266059 0 2.1753581-.5734299 3.85087667-1.7203068 5.02660587-1.146877 1.1757293-2.7633784 1.7843025-4.8495528 1.8257379zm0-2.4394965h4.374717c1.2662352 0 2.236655-.3780923 2.9112885-1.1342882.6746335-.75619596 1.0119452-1.83867934 1.0119452-3.24748268 0-1.3570091-.3476905-2.44467184-1.043082-3.26302084s-1.650243-1.22751736-2.8645833-1.22751736h-4.3902854zm75.1878385.8390625h-8.01772v8.0177083h9.341033v2.4394965h-12.190048v-22.6236111h12.034364v2.45503472h-9.185349v7.27187498h8.01772zm69.038325-12.1664063v22.6236111h-2.864583v-20.16857638h-6.336334l-.342504 9.50937498c-.124548 2.7761713-.389208 4.894524-.793988 6.3551216-.40478 1.4605975-.996373 2.5379016-1.774796 3.2319444-.778424.6940428-1.800737 1.0514177-3.066973 1.0721354h-.871829v-2.4394965l.529325-.0310764c.757665-.0621531 1.349258-.3547862 1.774796-.877908s.747282-1.3544069.96524-2.4938802c.217959-1.1394733.373641-2.8797337.467052-5.2208333l.373641-11.5604167z" transform="translate(113.188406 155.133333)"/></g></svg>